<?xml version="1.0" encoding="iso-8859-1"?>
<!-- Generator: Adobe Illustrator 16.0.0, SVG Export Plug-In . SVG Version: 6.00 Build 0)  -->
<!DOCTYPE svg PUBLIC "-//W3C//DTD SVG 1.1//EN" "http://www.w3.org/Graphics/SVG/1.1/DTD/svg11.dtd">
<svg version="1.1" id="Capa_1" xmlns="http://www.w3.org/2000/svg" xmlns:xlink="http://www.w3.org/1999/xlink" x="0px" y="0px"
	 width="926.301px" height="926.301px" viewBox="0 0 926.301 926.301" style="enable-background:new 0 0 926.301 926.301;"
	 xml:space="preserve" fill="rgba(255, 255, 255, 0.8)">
<g>
	<path d="M577.9,375.1H520.1c-13.799,0-25,11.2-25,25v57.8c0,13.799,11.201,25,25,25H577.9c13.799,0,25-11.201,25-25v-57.8
		C602.9,386.2,591.699,375.1,577.9,375.1z"/>
	<path d="M749.699,375.1H691.9c-13.801,0-25,11.2-25,25v57.8c0,13.799,11.199,25,25,25h57.799c13.801,0,25-11.201,25-25v-57.8
		C774.699,386.2,763.5,375.1,749.699,375.1z"/>
	<path d="M236,705.801h-57.9c-13.8,0-25,11.199-25,25V788.6c0,13.801,11.2,25,25,25h57.8c13.8,0,25-11.199,25-25v-57.799
		C261,717,249.8,705.801,236,705.801z"/>
	<path d="M407.8,705.801H350c-13.801,0-25,11.199-25,25V788.6c0,13.801,11.199,25,25,25h57.8c13.8,0,25-11.199,25-25v-57.799
		C432.8,717,421.6,705.801,407.8,705.801z"/>
	<path d="M176.5,648h57.8c13.8,0,25-11.199,25-25v-57.801c0-13.799-11.2-25-25-25h-57.8c-13.8,0-25,11.201-25,25V623
		C151.5,636.801,162.7,648,176.5,648z"/>
	<path d="M348.3,648h57.8c13.8,0,25-11.199,25-25v-57.801c0-13.799-11.2-25-25-25h-57.8c-13.8,0-25,11.201-25,25V623
		C323.3,636.801,334.5,648,348.3,648z"/>
	<path d="M577.9,540.1H520.1c-13.799,0-25,11.201-25,25V622.9c0,13.799,11.201,25,25,25H577.9c13.799,0,25-11.201,25-25V565.1
		C602.9,551.301,591.699,540.1,577.9,540.1z"/>
	<path d="M749.699,540.1H691.9c-13.801,0-25,11.201-25,25V622.9c0,13.799,11.199,25,25,25h57.799c13.801,0,25-11.201,25-25V565.1
		C774.699,551.301,763.5,540.1,749.699,540.1z"/>
	<g>
		<path d="M31,926.301h864.301c13.799,0,25-11.201,25-25V100.2c0-13.8-11.201-25-25-25H806.5v87.1c0,30.3-24.699,55-55,55h-61.199
			c-30.301,0-55-24.7-55-55V75.2h-86.602v87.1c0,30.3-24.699,55-55,55H432.5c-30.301,0-55-24.7-55-55V75.2H290.9v87.1
			c0,30.3-24.7,55-55,55h-61.2c-30.3,0-55-24.7-55-55V75.2H31c-13.8,0-25,11.2-25,25v801.101C6,915.1,17.2,926.301,31,926.301z
			 M70.3,328.2h785.6V862H70.3V328.2z"/>
		<path d="M174.8,0c-13.8,0-25,11.2-25,25v50.1v87.1c0,13.8,11.2,25,25,25H236c13.8,0,25-11.2,25-25V75.1V25c0-13.8-11.2-25-25-25
			H174.8z"/>
		<path d="M432.5,0c-13.801,0-25,11.2-25,25v50.1v87.1c0,13.8,11.199,25,25,25h61.199c13.801,0,25-11.2,25-25V75.1V25
			c0-13.8-11.199-25-25-25H432.5z"/>
		<path d="M751.4,0h-61.201c-13.799,0-25,11.2-25,25v50.1v87.1c0,13.8,11.201,25,25,25H751.4c13.799,0,25-11.2,25-25V75.1V25
			C776.4,11.2,765.199,0,751.4,0z"/>
	</g>
</g>
<g>
</g>
<g>
</g>
<g>
</g>
<g>
</g>
<g>
</g>
<g>
</g>
<g>
</g>
<g>
</g>
<g>
</g>
<g>
</g>
<g>
</g>
<g>
</g>
<g>
</g>
<g>
</g>
<g>
</g>
</svg>
